<mxfile host="app.diagrams.net" agent="Mozilla/5.0 (Windows NT 10.0; Win64; x64) AppleWebKit/537.36 (KHTML, like Gecko) Chrome/135.0.0.0 Safari/537.36" version="26.2.14">
  <diagram name="페이지-1" id="ziMDpMtz0rjRjJ7THkd3">
    <mxGraphModel dx="1426" dy="743" grid="1" gridSize="10" guides="1" tooltips="1" connect="1" arrows="1" fold="1" page="1" pageScale="1" pageWidth="827" pageHeight="1169" math="0" shadow="0">
      <root>
        <mxCell id="0" />
        <mxCell id="1" parent="0" />
        <mxCell id="aNqcBCFrtqx1Fy7KX9Zn-18" value="" style="rounded=0;whiteSpace=wrap;html=1;fillColor=#fff2cc;strokeColor=#d6b656;" vertex="1" parent="1">
          <mxGeometry x="80" y="550" width="700" height="570" as="geometry" />
        </mxCell>
        <mxCell id="aNqcBCFrtqx1Fy7KX9Zn-24" value="" style="rounded=0;whiteSpace=wrap;html=1;dashed=1;fillColor=#ffe6cc;strokeColor=#d79b00;" vertex="1" parent="1">
          <mxGeometry x="140" y="690" width="610" height="395" as="geometry" />
        </mxCell>
        <mxCell id="aNqcBCFrtqx1Fy7KX9Zn-19" value="" style="rounded=0;whiteSpace=wrap;html=1;fillColor=#fff2cc;strokeColor=#d6b656;" vertex="1" parent="1">
          <mxGeometry x="330" y="80" width="390" height="270" as="geometry" />
        </mxCell>
        <mxCell id="aNqcBCFrtqx1Fy7KX9Zn-7" style="edgeStyle=orthogonalEdgeStyle;rounded=0;orthogonalLoop=1;jettySize=auto;html=1;entryX=0;entryY=0.5;entryDx=0;entryDy=0;" edge="1" parent="1" source="aNqcBCFrtqx1Fy7KX9Zn-2" target="aNqcBCFrtqx1Fy7KX9Zn-4">
          <mxGeometry relative="1" as="geometry" />
        </mxCell>
        <mxCell id="aNqcBCFrtqx1Fy7KX9Zn-2" value="Network" style="ellipse;shape=cloud;whiteSpace=wrap;html=1;" vertex="1" parent="1">
          <mxGeometry x="180" y="121.2" width="120" height="80" as="geometry" />
        </mxCell>
        <mxCell id="aNqcBCFrtqx1Fy7KX9Zn-8" style="edgeStyle=orthogonalEdgeStyle;rounded=0;orthogonalLoop=1;jettySize=auto;html=1;" edge="1" parent="1" source="aNqcBCFrtqx1Fy7KX9Zn-4" target="aNqcBCFrtqx1Fy7KX9Zn-5">
          <mxGeometry relative="1" as="geometry" />
        </mxCell>
        <mxCell id="aNqcBCFrtqx1Fy7KX9Zn-4" value="FrontEnd&lt;div&gt;(React. TypeScript)&lt;/div&gt;" style="rounded=0;whiteSpace=wrap;html=1;" vertex="1" parent="1">
          <mxGeometry x="360" y="131.2" width="120" height="60" as="geometry" />
        </mxCell>
        <mxCell id="aNqcBCFrtqx1Fy7KX9Zn-14" style="edgeStyle=orthogonalEdgeStyle;rounded=0;orthogonalLoop=1;jettySize=auto;html=1;exitX=0.5;exitY=1;exitDx=0;exitDy=0;" edge="1" parent="1" source="aNqcBCFrtqx1Fy7KX9Zn-5" target="aNqcBCFrtqx1Fy7KX9Zn-13">
          <mxGeometry relative="1" as="geometry" />
        </mxCell>
        <mxCell id="aNqcBCFrtqx1Fy7KX9Zn-5" value="BackEnd&lt;div&gt;(Spring Boot)&lt;/div&gt;" style="rounded=0;whiteSpace=wrap;html=1;" vertex="1" parent="1">
          <mxGeometry x="540" y="131.20000000000002" width="120" height="60" as="geometry" />
        </mxCell>
        <mxCell id="aNqcBCFrtqx1Fy7KX9Zn-9" style="edgeStyle=orthogonalEdgeStyle;rounded=0;orthogonalLoop=1;jettySize=auto;html=1;entryX=0.1;entryY=0.497;entryDx=0;entryDy=0;entryPerimeter=0;" edge="1" parent="1" source="aNqcBCFrtqx1Fy7KX9Zn-15" target="aNqcBCFrtqx1Fy7KX9Zn-2">
          <mxGeometry relative="1" as="geometry">
            <mxPoint x="122.40000000000009" y="160" as="sourcePoint" />
          </mxGeometry>
        </mxCell>
        <mxCell id="aNqcBCFrtqx1Fy7KX9Zn-10" value="Nginx:80" style="text;strokeColor=none;fillColor=none;html=1;fontSize10;fontStyle=1;verticalAlign=middle;align=center;" vertex="1" parent="1">
          <mxGeometry x="340" y="100" width="100" height="40" as="geometry" />
        </mxCell>
        <mxCell id="aNqcBCFrtqx1Fy7KX9Zn-12" value="8080" style="text;strokeColor=none;fillColor=none;html=1;fontSize10;fontStyle=1;verticalAlign=middle;align=center;" vertex="1" parent="1">
          <mxGeometry x="510" y="100" width="100" height="40" as="geometry" />
        </mxCell>
        <mxCell id="aNqcBCFrtqx1Fy7KX9Zn-13" value="MySQL" style="shape=cylinder3;whiteSpace=wrap;html=1;boundedLbl=1;backgroundOutline=1;size=15;" vertex="1" parent="1">
          <mxGeometry x="555" y="270" width="90" height="60" as="geometry" />
        </mxCell>
        <mxCell id="aNqcBCFrtqx1Fy7KX9Zn-15" value="" style="image;points=[];aspect=fixed;html=1;align=center;shadow=0;dashed=0;image=img/lib/allied_telesis/computer_and_terminals/Personal_Computer_Wireless.svg;" vertex="1" parent="1">
          <mxGeometry x="40" y="129.1" width="63" height="64.2" as="geometry" />
        </mxCell>
        <mxCell id="aNqcBCFrtqx1Fy7KX9Zn-20" value="Docker" style="text;strokeColor=none;fillColor=none;html=1;fontSize=24;fontStyle=1;verticalAlign=middle;align=center;" vertex="1" parent="1">
          <mxGeometry x="330" y="30" width="100" height="40" as="geometry" />
        </mxCell>
        <mxCell id="aNqcBCFrtqx1Fy7KX9Zn-21" value="3306" style="text;strokeColor=none;fillColor=none;html=1;fontSize10;fontStyle=1;verticalAlign=middle;align=center;" vertex="1" parent="1">
          <mxGeometry x="520" y="240" width="100" height="40" as="geometry" />
        </mxCell>
        <mxCell id="aNqcBCFrtqx1Fy7KX9Zn-22" value="AWS" style="text;strokeColor=none;fillColor=none;html=1;fontSize=24;fontStyle=1;verticalAlign=middle;align=center;" vertex="1" parent="1">
          <mxGeometry x="80" y="510" width="100" height="40" as="geometry" />
        </mxCell>
        <mxCell id="aNqcBCFrtqx1Fy7KX9Zn-25" value="VPC" style="text;html=1;fontSize=17;fontStyle=1;verticalAlign=middle;align=center;fontColor=#FF0000;" vertex="1" parent="1">
          <mxGeometry x="370" y="560" width="100" height="20" as="geometry" />
        </mxCell>
        <mxCell id="aNqcBCFrtqx1Fy7KX9Zn-26" value="" style="rounded=0;whiteSpace=wrap;html=1;dashed=1;fillColor=#dae8fc;strokeColor=#6c8ebf;" vertex="1" parent="1">
          <mxGeometry x="170" y="725" width="220" height="230" as="geometry" />
        </mxCell>
        <mxCell id="aNqcBCFrtqx1Fy7KX9Zn-27" value="" style="rounded=0;whiteSpace=wrap;html=1;dashed=1;fillColor=#dae8fc;strokeColor=#6c8ebf;" vertex="1" parent="1">
          <mxGeometry x="470" y="725" width="220" height="230" as="geometry" />
        </mxCell>
        <mxCell id="aNqcBCFrtqx1Fy7KX9Zn-46" value="" style="edgeStyle=orthogonalEdgeStyle;rounded=0;orthogonalLoop=1;jettySize=auto;html=1;" edge="1" parent="1" source="aNqcBCFrtqx1Fy7KX9Zn-28" target="aNqcBCFrtqx1Fy7KX9Zn-30">
          <mxGeometry relative="1" as="geometry" />
        </mxCell>
        <mxCell id="aNqcBCFrtqx1Fy7KX9Zn-28" value="FrontEnd&lt;div&gt;(React. TypeScript)&lt;/div&gt;" style="rounded=0;whiteSpace=wrap;html=1;" vertex="1" parent="1">
          <mxGeometry x="220" y="765" width="120" height="65" as="geometry" />
        </mxCell>
        <mxCell id="aNqcBCFrtqx1Fy7KX9Zn-47" value="" style="edgeStyle=orthogonalEdgeStyle;rounded=0;orthogonalLoop=1;jettySize=auto;html=1;" edge="1" parent="1" source="aNqcBCFrtqx1Fy7KX9Zn-29" target="aNqcBCFrtqx1Fy7KX9Zn-31">
          <mxGeometry relative="1" as="geometry" />
        </mxCell>
        <mxCell id="aNqcBCFrtqx1Fy7KX9Zn-29" value="FrontEnd&lt;div&gt;(React. TypeScript)&lt;/div&gt;" style="rounded=0;whiteSpace=wrap;html=1;" vertex="1" parent="1">
          <mxGeometry x="530" y="765" width="120" height="60" as="geometry" />
        </mxCell>
        <mxCell id="aNqcBCFrtqx1Fy7KX9Zn-30" value="BackEnd&lt;div&gt;(Spring Boot)&lt;/div&gt;" style="rounded=0;whiteSpace=wrap;html=1;" vertex="1" parent="1">
          <mxGeometry x="220" y="870" width="120" height="60" as="geometry" />
        </mxCell>
        <mxCell id="aNqcBCFrtqx1Fy7KX9Zn-31" value="BackEnd&lt;div&gt;(Spring Boot)&lt;/div&gt;" style="rounded=0;whiteSpace=wrap;html=1;" vertex="1" parent="1">
          <mxGeometry x="530" y="870" width="120" height="60" as="geometry" />
        </mxCell>
        <mxCell id="aNqcBCFrtqx1Fy7KX9Zn-32" value="MySQL" style="shape=cylinder3;whiteSpace=wrap;html=1;boundedLbl=1;backgroundOutline=1;size=15;" vertex="1" parent="1">
          <mxGeometry x="385" y="1005" width="90" height="60" as="geometry" />
        </mxCell>
        <mxCell id="aNqcBCFrtqx1Fy7KX9Zn-34" style="edgeStyle=orthogonalEdgeStyle;rounded=0;orthogonalLoop=1;jettySize=auto;html=1;entryX=0.484;entryY=-0.002;entryDx=0;entryDy=0;entryPerimeter=0;" edge="1" parent="1" source="aNqcBCFrtqx1Fy7KX9Zn-2" target="aNqcBCFrtqx1Fy7KX9Zn-18">
          <mxGeometry relative="1" as="geometry">
            <Array as="points">
              <mxPoint x="240" y="430" />
              <mxPoint x="419" y="430" />
            </Array>
          </mxGeometry>
        </mxCell>
        <mxCell id="aNqcBCFrtqx1Fy7KX9Zn-43" style="edgeStyle=orthogonalEdgeStyle;rounded=0;orthogonalLoop=1;jettySize=auto;html=1;entryX=0.5;entryY=0;entryDx=0;entryDy=0;" edge="1" parent="1" source="aNqcBCFrtqx1Fy7KX9Zn-35" target="aNqcBCFrtqx1Fy7KX9Zn-28">
          <mxGeometry relative="1" as="geometry">
            <Array as="points">
              <mxPoint x="280" y="630" />
            </Array>
          </mxGeometry>
        </mxCell>
        <mxCell id="aNqcBCFrtqx1Fy7KX9Zn-44" style="edgeStyle=orthogonalEdgeStyle;rounded=0;orthogonalLoop=1;jettySize=auto;html=1;exitX=1;exitY=0.5;exitDx=0;exitDy=0;entryX=0.5;entryY=0;entryDx=0;entryDy=0;" edge="1" parent="1" source="aNqcBCFrtqx1Fy7KX9Zn-35" target="aNqcBCFrtqx1Fy7KX9Zn-29">
          <mxGeometry relative="1" as="geometry" />
        </mxCell>
        <mxCell id="aNqcBCFrtqx1Fy7KX9Zn-35" value="Nginx&lt;div&gt;(Load Balancing)&lt;/div&gt;" style="rounded=0;whiteSpace=wrap;html=1;" vertex="1" parent="1">
          <mxGeometry x="360" y="600" width="120" height="60" as="geometry" />
        </mxCell>
        <mxCell id="aNqcBCFrtqx1Fy7KX9Zn-39" value="EC2" style="text;html=1;fontSize=17;fontStyle=1;verticalAlign=middle;align=center;fontColor=#FF0000;" vertex="1" parent="1">
          <mxGeometry x="140" y="705" width="100" height="20" as="geometry" />
        </mxCell>
        <mxCell id="aNqcBCFrtqx1Fy7KX9Zn-40" value="EC2" style="text;html=1;fontSize=17;fontStyle=1;verticalAlign=middle;align=center;fontColor=#FF0000;" vertex="1" parent="1">
          <mxGeometry x="440" y="705" width="100" height="20" as="geometry" />
        </mxCell>
        <mxCell id="aNqcBCFrtqx1Fy7KX9Zn-41" value="RDS" style="text;html=1;fontSize=17;fontStyle=1;verticalAlign=middle;align=center;fontColor=#FF0000;" vertex="1" parent="1">
          <mxGeometry x="370" y="985" width="100" height="20" as="geometry" />
        </mxCell>
        <mxCell id="aNqcBCFrtqx1Fy7KX9Zn-48" style="edgeStyle=orthogonalEdgeStyle;rounded=0;orthogonalLoop=1;jettySize=auto;html=1;entryX=1;entryY=0.5;entryDx=0;entryDy=0;entryPerimeter=0;exitX=0.5;exitY=1;exitDx=0;exitDy=0;" edge="1" parent="1" source="aNqcBCFrtqx1Fy7KX9Zn-31" target="aNqcBCFrtqx1Fy7KX9Zn-32">
          <mxGeometry relative="1" as="geometry" />
        </mxCell>
        <mxCell id="aNqcBCFrtqx1Fy7KX9Zn-49" style="edgeStyle=orthogonalEdgeStyle;rounded=0;orthogonalLoop=1;jettySize=auto;html=1;entryX=0;entryY=0.5;entryDx=0;entryDy=0;entryPerimeter=0;exitX=0.5;exitY=1;exitDx=0;exitDy=0;" edge="1" parent="1" source="aNqcBCFrtqx1Fy7KX9Zn-30" target="aNqcBCFrtqx1Fy7KX9Zn-32">
          <mxGeometry relative="1" as="geometry" />
        </mxCell>
      </root>
    </mxGraphModel>
  </diagram>
</mxfile>
